<svg width="70" height="72" viewBox="0 0 70 72" fill="none" xmlns="http://www.w3.org/2000/svg">
<rect width="70" height="70" rx="35" fill="#2684FF"/>
<g filter="url(#filter0_dd)">
<path fill-rule="evenodd" clip-rule="evenodd" d="M34.9996 48.7339C31.621 48.7339 28.5281 47.5027 26.1336 45.4732L45.4687 26.1337C47.5026 28.5282 48.7339 31.621 48.7339 34.9996C48.7339 42.5731 42.5731 48.7339 34.9996 48.7339ZM34.9996 21.2674C38.3782 21.2674 41.4711 22.4987 43.8656 24.5304L24.5305 43.8677C22.4988 41.4732 21.2653 38.3803 21.2653 34.9995C21.2653 27.4283 27.4261 21.2674 34.9996 21.2674ZM34.9996 19C26.1767 19 18.9978 26.1789 18.9978 34.9995C18.9978 39.394 20.7801 43.378 23.6575 46.2736C23.6711 46.2872 23.6734 46.3031 23.687 46.3167C23.7006 46.328 23.7165 46.3325 23.7301 46.3439C26.6257 49.2213 30.6074 51.0013 34.9996 51.0013C43.8225 51.0013 51.0014 43.8224 51.0014 34.9995C51.0014 26.1789 43.8225 19 34.9996 19Z" fill="white"/>
<path d="M26.1336 45.4732L25.9568 45.2965L25.7649 45.4885L25.972 45.664L26.1336 45.4732ZM45.4687 26.1337L45.6592 25.9718L45.4836 25.7651L45.2919 25.9569L45.4687 26.1337ZM43.8656 24.5304L44.0423 24.7071L44.2342 24.5153L44.0273 24.3397L43.8656 24.5304ZM24.5305 43.8677L24.3399 44.0294L24.5154 44.2363L24.7073 44.0444L24.5305 43.8677ZM23.6575 46.2736L23.4802 46.4498L23.4808 46.4504L23.6575 46.2736ZM23.687 46.3167L23.5102 46.4934L23.5182 46.5015L23.527 46.5087L23.687 46.3167ZM23.7301 46.3439L23.9063 46.1665L23.8985 46.1588L23.8901 46.1518L23.7301 46.3439ZM34.9996 48.4839C31.6829 48.4839 28.6467 47.2755 26.2953 45.2825L25.972 45.664C28.4095 47.7298 31.5591 48.9839 34.9996 48.9839V48.4839ZM26.3104 45.65L45.6455 26.3104L45.2919 25.9569L25.9568 45.2965L26.3104 45.65ZM45.2781 26.2955C47.2755 28.6469 48.4839 31.683 48.4839 34.9996H48.9839C48.9839 31.5591 47.7298 28.4094 45.6592 25.9718L45.2781 26.2955ZM48.4839 34.9996C48.4839 42.435 42.435 48.4839 34.9996 48.4839V48.9839C42.7111 48.9839 48.9839 42.7112 48.9839 34.9996H48.4839ZM34.9996 21.5174C38.3162 21.5174 41.3524 22.7259 43.7038 24.721L44.0273 24.3397C41.5897 22.2715 38.4401 21.0174 34.9996 21.0174V21.5174ZM43.6888 24.3536L24.3537 43.6909L24.7073 44.0444L44.0423 24.7071L43.6888 24.3536ZM24.7211 43.7059C22.7259 41.3544 21.5153 38.3183 21.5153 34.9995H21.0153C21.0153 38.4423 22.2717 41.5919 24.3399 44.0294L24.7211 43.7059ZM21.5153 34.9995C21.5153 27.5663 27.5642 21.5174 34.9996 21.5174V21.0174C27.2881 21.0174 21.0153 27.2902 21.0153 34.9995H21.5153ZM34.9996 18.75C26.0387 18.75 18.7478 26.0408 18.7478 34.9995H19.2478C19.2478 26.317 26.3148 19.25 34.9996 19.25V18.75ZM18.7478 34.9995C18.7478 39.463 20.5583 43.5095 23.4802 46.4498L23.8349 46.0974C21.0018 43.2464 19.2478 39.3249 19.2478 34.9995H18.7478ZM23.4808 46.4504C23.4583 46.4279 23.447 46.404 23.4522 46.4136C23.4549 46.4187 23.4741 46.4573 23.5102 46.4934L23.8638 46.1399C23.8863 46.1624 23.8976 46.1862 23.8924 46.1766C23.8896 46.1715 23.8704 46.1329 23.8343 46.0968L23.4808 46.4504ZM23.527 46.5087C23.5424 46.5216 23.5568 46.5311 23.5677 46.5377C23.5778 46.5439 23.5873 46.5489 23.59 46.5504C23.5946 46.5529 23.5926 46.5518 23.5897 46.5501C23.586 46.5478 23.5787 46.5431 23.57 46.5359L23.8901 46.1518C23.8747 46.1389 23.8603 46.1294 23.8494 46.1228C23.8393 46.1167 23.8298 46.1116 23.8271 46.1101C23.8225 46.1077 23.8245 46.1087 23.8274 46.1105C23.8311 46.1127 23.8384 46.1174 23.8471 46.1246L23.527 46.5087ZM23.5539 46.5212C26.4942 49.4431 30.5385 51.2513 34.9996 51.2513V50.7513C30.6764 50.7513 26.7572 48.9996 23.9063 46.1665L23.5539 46.5212ZM34.9996 51.2513C43.9605 51.2513 51.2514 43.9605 51.2514 34.9995H50.7514C50.7514 43.6843 43.6844 50.7513 34.9996 50.7513V51.2513ZM51.2514 34.9995C51.2514 26.0408 43.9605 18.75 34.9996 18.75V19.25C43.6844 19.25 50.7514 26.317 50.7514 34.9995H51.2514Z" fill="white"/>
</g>
<defs>
<filter id="filter0_dd" x="-9" y="-5" width="88" height="88" filterUnits="userSpaceOnUse" color-interpolation-filters="sRGB">
<feFlood flood-opacity="0" result="BackgroundImageFix"/>
<feColorMatrix in="SourceAlpha" type="matrix" values="0 0 0 0 0 0 0 0 0 0 0 0 0 0 0 0 0 0 127 0" result="hardAlpha"/>
<feOffset dy="4"/>
<feGaussianBlur stdDeviation="8"/>
<feColorMatrix type="matrix" values="0 0 0 0 0.14902 0 0 0 0 0.196078 0 0 0 0 0.219608 0 0 0 0.08 0"/>
<feBlend mode="multiply" in2="BackgroundImageFix" result="effect1_dropShadow"/>
<feColorMatrix in="SourceAlpha" type="matrix" values="0 0 0 0 0 0 0 0 0 0 0 0 0 0 0 0 0 0 127 0" result="hardAlpha"/>
<feOffset dy="4"/>
<feGaussianBlur stdDeviation="3"/>
<feColorMatrix type="matrix" values="0 0 0 0 0.14902 0 0 0 0 0.196078 0 0 0 0 0.219608 0 0 0 0.16 0"/>
<feBlend mode="multiply" in2="effect1_dropShadow" result="effect2_dropShadow"/>
<feBlend mode="normal" in="SourceGraphic" in2="effect2_dropShadow" result="shape"/>
</filter>
</defs>
</svg>
