<svg width="70" height="72" viewBox="0 0 70 72" fill="none" xmlns="http://www.w3.org/2000/svg">
<rect width="70" height="70" rx="35" fill="#C98BD2"/>
<g filter="url(#filter0_dd)">
<path fill-rule="evenodd" clip-rule="evenodd" d="M43.2397 48.9692H26.5983L24.6212 25.4726H29.236H40.7429H45.2168L43.2397 48.9692ZM30.3908 23.1626H39.588V21.0307H30.3908V23.1626ZM47.8452 23.1627H41.8977V21.0309C41.8977 19.7582 40.8606 18.7212 39.588 18.7212H30.3908C29.1158 18.7212 28.0811 19.7582 28.0811 21.0309V23.1627H22.1567C21.5193 23.1627 21.0019 23.6801 21.0019 24.3176C21.0019 24.9574 21.5193 25.4724 22.1567 25.4724H22.3046L24.2978 49.1607C24.3948 50.3501 25.4065 51.2786 26.5983 51.2786H43.2396C44.4499 51.2786 45.4408 50.3686 45.5424 49.163L47.5333 25.4724H47.8452C48.4826 25.4724 49 24.9574 49 24.3176C49 23.6801 48.4826 23.1627 47.8452 23.1627Z" fill="white"/>
<path d="M43.2397 48.9692V49.2192H43.4695L43.4888 48.9901L43.2397 48.9692ZM26.5983 48.9692L26.3492 48.9901L26.3685 49.2192H26.5983V48.9692ZM24.6212 25.4726V25.2226H24.3493L24.3721 25.4936L24.6212 25.4726ZM45.2168 25.4726L45.4659 25.4936L45.4887 25.2226H45.2168V25.4726ZM30.3908 23.1626H30.1408V23.4126H30.3908V23.1626ZM39.588 23.1626V23.4126H39.838V23.1626H39.588ZM39.588 21.0307H39.838V20.7807H39.588V21.0307ZM30.3908 21.0307V20.7807H30.1408V21.0307H30.3908ZM41.8977 23.1627H41.6477V23.4127H41.8977V23.1627ZM28.0811 23.1627V23.4127H28.3311V23.1627H28.0811ZM22.3046 25.4724L22.5537 25.4515L22.5344 25.2224H22.3046V25.4724ZM24.2978 49.1607L24.547 49.1403L24.5469 49.1397L24.2978 49.1607ZM45.5424 49.163L45.7915 49.184L45.7915 49.1839L45.5424 49.163ZM47.5333 25.4724V25.2224H47.3035L47.2842 25.4515L47.5333 25.4724ZM43.2397 48.7192H26.5983V49.2192H43.2397V48.7192ZM26.8474 48.9482L24.8703 25.4517L24.3721 25.4936L26.3492 48.9901L26.8474 48.9482ZM24.6212 25.7226H29.236V25.2226H24.6212V25.7226ZM29.236 25.7226H40.7429V25.2226H29.236V25.7226ZM40.7429 25.7226H45.2168V25.2226H40.7429V25.7226ZM44.9676 25.4517L42.9905 48.9482L43.4888 48.9901L45.4659 25.4936L44.9676 25.4517ZM30.3908 23.4126H39.588V22.9126H30.3908V23.4126ZM39.838 23.1626V21.0307H39.338V23.1626H39.838ZM39.588 20.7807H30.3908V21.2807H39.588V20.7807ZM30.1408 21.0307V23.1626H30.6408V21.0307H30.1408ZM47.8452 22.9127H41.8977V23.4127H47.8452V22.9127ZM42.1477 23.1627V21.0309H41.6477V23.1627H42.1477ZM42.1477 21.0309C42.1477 19.6202 40.9987 18.4712 39.588 18.4712V18.9712C40.7226 18.9712 41.6477 19.8963 41.6477 21.0309H42.1477ZM39.588 18.4712H30.3908V18.9712H39.588V18.4712ZM30.3908 18.4712C28.9776 18.4712 27.8311 19.6203 27.8311 21.0309H28.3311C28.3311 19.8962 29.2541 18.9712 30.3908 18.9712V18.4712ZM27.8311 21.0309V23.1627H28.3311V21.0309H27.8311ZM28.0811 22.9127H22.1567V23.4127H28.0811V22.9127ZM22.1567 22.9127C21.3812 22.9127 20.7519 23.542 20.7519 24.3176H21.2519C21.2519 23.8182 21.6573 23.4127 22.1567 23.4127V22.9127ZM20.7519 24.3176C20.7519 25.0958 21.3815 25.7224 22.1567 25.7224V25.2224C21.657 25.2224 21.2519 24.819 21.2519 24.3176H20.7519ZM22.1567 25.7224H22.3046V25.2224H22.1567V25.7224ZM22.0554 25.4934L24.0487 49.1816L24.5469 49.1397L22.5537 25.4515L22.0554 25.4934ZM24.0486 49.181C24.1563 50.5007 25.2768 51.5286 26.5983 51.5286V51.0286C25.5362 51.0286 24.6334 50.1996 24.547 49.1403L24.0486 49.181ZM26.5983 51.5286H43.2396V51.0286H26.5983V51.5286ZM43.2396 51.5286C44.5797 51.5286 45.679 50.5192 45.7915 49.184L45.2933 49.142C45.2026 50.218 44.3201 51.0286 43.2396 51.0286V51.5286ZM45.7915 49.1839L47.7825 25.4934L47.2842 25.4515L45.2933 49.142L45.7915 49.1839ZM47.5333 25.7224H47.8452V25.2224H47.5333V25.7224ZM47.8452 25.7224C48.6204 25.7224 49.25 25.0958 49.25 24.3176H48.75C48.75 24.819 48.3449 25.2224 47.8452 25.2224V25.7224ZM49.25 24.3176C49.25 23.542 48.6207 22.9127 47.8452 22.9127V23.4127C48.3446 23.4127 48.75 23.8182 48.75 24.3176H49.25Z" fill="white"/>
<path fill-rule="evenodd" clip-rule="evenodd" d="M31 31C30.448 31 30 31.6088 30 32.359V41.641C30 42.3912 30.448 43 31 43C31.552 43 32 42.3912 32 41.641V32.359C32 31.6088 31.552 31 31 31Z" fill="white"/>
<path d="M31 31C30.448 31 30 31.6088 30 32.359V41.641C30 42.3912 30.448 43 31 43C31.552 43 32 42.3912 32 41.641V32.359C32 31.6088 31.552 31 31 31" stroke="white" stroke-width="0.5"/>
<path fill-rule="evenodd" clip-rule="evenodd" d="M39 31C38.448 31 38 31.6088 38 32.359V41.641C38 42.3912 38.448 43 39 43C39.552 43 40 42.3912 40 41.641V32.359C40 31.6088 39.552 31 39 31Z" fill="white"/>
<path d="M39 31C38.448 31 38 31.6088 38 32.359V41.641C38 42.3912 38.448 43 39 43C39.552 43 40 42.3912 40 41.641V32.359C40 31.6088 39.552 31 39 31" stroke="white" stroke-width="0.5"/>
</g>
<defs>
<filter id="filter0_dd" x="-9" y="-5" width="88" height="88" filterUnits="userSpaceOnUse" color-interpolation-filters="sRGB">
<feFlood flood-opacity="0" result="BackgroundImageFix"/>
<feColorMatrix in="SourceAlpha" type="matrix" values="0 0 0 0 0 0 0 0 0 0 0 0 0 0 0 0 0 0 127 0" result="hardAlpha"/>
<feOffset dy="4"/>
<feGaussianBlur stdDeviation="8"/>
<feColorMatrix type="matrix" values="0 0 0 0 0.14902 0 0 0 0 0.196078 0 0 0 0 0.219608 0 0 0 0.08 0"/>
<feBlend mode="multiply" in2="BackgroundImageFix" result="effect1_dropShadow"/>
<feColorMatrix in="SourceAlpha" type="matrix" values="0 0 0 0 0 0 0 0 0 0 0 0 0 0 0 0 0 0 127 0" result="hardAlpha"/>
<feOffset dy="4"/>
<feGaussianBlur stdDeviation="3"/>
<feColorMatrix type="matrix" values="0 0 0 0 0.14902 0 0 0 0 0.196078 0 0 0 0 0.219608 0 0 0 0.16 0"/>
<feBlend mode="multiply" in2="effect1_dropShadow" result="effect2_dropShadow"/>
<feBlend mode="normal" in="SourceGraphic" in2="effect2_dropShadow" result="shape"/>
</filter>
</defs>
</svg>
