<svg width="292" height="64" viewBox="0 0 292 64" fill="none" xmlns="http://www.w3.org/2000/svg">
<g clip-path="url(#clip0)">
<rect width="365.714" height="64" transform="translate(-36.8572)" fill="white" fill-opacity="0.01"/>
<path d="M21.5751 38.355H21.4633C17.9204 38.355 15.4964 35.9309 15.4964 32.5C15.4964 29.1064 17.9204 26.645 21.4633 26.645H21.5751C24.4094 26.645 26.5351 28.3978 27.2809 30.6727H35.7837C34.9633 23.6243 29.2948 19 21.5751 19H21.4633C13.1097 19 7.14282 24.4447 7.14282 32.5C7.14282 40.5925 13.2961 46 21.4633 46H21.5751C29.2948 46 34.9633 41.3757 35.7837 34.3273H27.2809C26.5351 36.6395 24.4094 38.355 21.5751 38.355Z" fill="#0152CC"/>
<path d="M46.9762 38.355V19.4475H38.7718V45.5525H59.2455V38.355H46.9762Z" fill="#0152CC"/>
<path d="M84.2472 26.5331V19.4475H62.9903V45.5525H84.2472V38.4296H71.1947V35.9309H81.7113V29.1436H71.1947V26.5331H84.2472Z" fill="#0152CC"/>
<path d="M106.881 45.5525H115.197L108.298 19.4475H93.381L86.4818 45.5525H94.7608L95.8423 41.413H105.8L106.881 45.5525ZM97.707 34.1409L99.6462 26.645H101.958L103.898 34.1409H97.707Z" fill="#0152CC"/>
<path d="M117.436 45.5525H125.678V39.5856H130.34L133.882 45.5525H143.392L138.246 37.7583C141.08 35.9309 142.721 32.9102 142.721 29.5166C142.721 23.9599 138.32 19.4475 131.645 19.4475H117.436V45.5525ZM125.678 32.3881V26.645H131.645C133.211 26.645 134.516 27.913 134.516 29.5166C134.516 31.1202 133.211 32.3881 131.645 32.3881H125.678Z" fill="#0152CC"/>
<path d="M182.163 19.4476L168.253 30.2998L154.007 19.4476H145.989V45.5526H154.007V29.4794L168.253 40.5927L182.163 29.554V45.5526H190.181V19.4476H182.163Z" fill="#2684FF"/>
<path d="M227.74 45.5526H236.057L229.158 19.4476H199.323L192.424 45.5526H200.703L201.785 41.4131H226.659L227.74 45.5526ZM203.649 34.141L205.588 26.6451H222.818L224.757 34.141H203.649Z" fill="#2684FF"/>
<path d="M238.31 45.5526H246.515V19.4476H238.31V45.5526Z" fill="#2684FF"/>
<path d="M258.46 38.3551V19.4476H250.256V45.5526H285.646V38.3551H258.46Z" fill="#2684FF"/>
</g>
<defs>
<clipPath id="clip0">
<rect width="292" height="64" fill="white"/>
</clipPath>
</defs>
</svg>
