<svg width="209" height="285" viewBox="0 0 209 285" fill="none" xmlns="http://www.w3.org/2000/svg">
<g opacity="0.5" clip-path="url(#clip0)">
<path d="M46.2959 35.6611C42.6031 35.6611 39.6094 32.6675 39.6094 28.9747C39.6094 25.2818 42.6031 22.2882 46.2959 22.2882C49.9887 22.2882 52.9824 25.2818 52.9824 28.9747C52.9824 32.6675 49.9887 35.6611 46.2959 35.6611Z" fill="#FFB1A5"/>
<path d="M24.0077 13.3729C20.3148 13.3729 17.3212 10.3793 17.3212 6.68647C17.3212 2.99363 20.3148 0 24.0077 0C27.7005 0 30.6942 2.99363 30.6942 6.68647C30.6942 10.3793 27.7005 13.3729 24.0077 13.3729Z" fill="#FFB1A5"/>
<path d="M1.71941 35.6611C-1.97342 35.6611 -4.96706 32.6675 -4.96706 28.9747C-4.96706 25.2818 -1.97342 22.2882 1.71941 22.2882C5.41225 22.2882 8.40588 25.2818 8.40588 28.9747C8.40588 32.6675 5.41225 35.6611 1.71941 35.6611Z" fill="#FFB1A5"/>
<path d="M90.8724 80.2376C87.1795 80.2376 84.1859 77.244 84.1859 73.5512C84.1859 69.8583 87.1795 66.8647 90.8724 66.8647C94.5652 66.8647 97.5588 69.8583 97.5588 73.5512C97.5588 77.244 94.5652 80.2376 90.8724 80.2376Z" fill="#FFB1A5"/>
<path d="M68.5842 57.9494C64.8913 57.9494 61.8977 54.9558 61.8977 51.2629C61.8977 47.5701 64.8913 44.5765 68.5842 44.5765C72.277 44.5765 75.2706 47.5701 75.2706 51.2629C75.2706 54.9558 72.277 57.9494 68.5842 57.9494Z" fill="#FFB1A5"/>
<path d="M46.2959 80.2376C42.6031 80.2376 39.6094 77.244 39.6094 73.5512C39.6094 69.8583 42.6031 66.8647 46.2959 66.8647C49.9887 66.8647 52.9824 69.8583 52.9824 73.5512C52.9824 77.244 49.9887 80.2376 46.2959 80.2376Z" fill="#FFB1A5"/>
<path d="M24.0077 57.9494C20.3148 57.9494 17.3212 54.9558 17.3212 51.2629C17.3212 47.5701 20.3148 44.5765 24.0077 44.5765C27.7005 44.5765 30.6942 47.5701 30.6942 51.2629C30.6942 54.9558 27.7005 57.9494 24.0077 57.9494Z" fill="#FFB1A5"/>
<path d="M1.71941 80.2376C-1.97342 80.2376 -4.96706 77.244 -4.96706 73.5512C-4.96706 69.8583 -1.97342 66.8647 1.71941 66.8647C5.41225 66.8647 8.40588 69.8583 8.40588 73.5512C8.40588 77.244 5.41225 80.2376 1.71941 80.2376Z" fill="#FFB1A5"/>
<path d="M135.449 124.814C131.756 124.814 128.762 121.82 128.762 118.128C128.762 114.435 131.756 111.441 135.449 111.441C139.142 111.441 142.135 114.435 142.135 118.128C142.135 121.82 139.142 124.814 135.449 124.814Z" fill="#FFB1A5"/>
<path d="M113.161 102.526C109.468 102.526 106.474 99.5323 106.474 95.8394C106.474 92.1466 109.468 89.153 113.161 89.153C116.853 89.153 119.847 92.1466 119.847 95.8394C119.847 99.5323 116.853 102.526 113.161 102.526Z" fill="#FFB1A5"/>
<path d="M90.8724 124.814C87.1795 124.814 84.1859 121.82 84.1859 118.128C84.1859 114.435 87.1795 111.441 90.8724 111.441C94.5652 111.441 97.5588 114.435 97.5588 118.128C97.5588 121.82 94.5652 124.814 90.8724 124.814Z" fill="#FFB1A5"/>
<path d="M68.5842 102.526C64.8913 102.526 61.8977 99.5323 61.8977 95.8394C61.8977 92.1466 64.8913 89.153 68.5842 89.153C72.277 89.153 75.2706 92.1466 75.2706 95.8394C75.2706 99.5323 72.277 102.526 68.5842 102.526Z" fill="#FFB1A5"/>
<path d="M46.2959 124.814C42.6031 124.814 39.6094 121.82 39.6094 118.128C39.6094 114.435 42.6031 111.441 46.2959 111.441C49.9887 111.441 52.9824 114.435 52.9824 118.128C52.9824 121.82 49.9887 124.814 46.2959 124.814Z" fill="#FFB1A5"/>
<path d="M24.0077 102.526C20.3148 102.526 17.3212 99.5323 17.3212 95.8394C17.3212 92.1466 20.3148 89.153 24.0077 89.153C27.7005 89.153 30.6942 92.1466 30.6942 95.8394C30.6942 99.5323 27.7005 102.526 24.0077 102.526Z" fill="#FFB1A5"/>
<path d="M1.71941 124.814C-1.97342 124.814 -4.96706 121.82 -4.96706 118.128C-4.96706 114.435 -1.97342 111.441 1.71941 111.441C5.41225 111.441 8.40588 114.435 8.40588 118.128C8.40588 121.82 5.41225 124.814 1.71941 124.814Z" fill="#FFB1A5"/>
<path d="M113.161 147.102C109.468 147.102 106.474 144.109 106.474 140.416C106.474 136.723 109.468 133.729 113.161 133.729C116.853 133.729 119.847 136.723 119.847 140.416C119.847 144.109 116.853 147.102 113.161 147.102Z" fill="#FFB1A5"/>
<path d="M90.8724 169.391C87.1795 169.391 84.1859 166.397 84.1859 162.704C84.1859 159.011 87.1795 156.018 90.8724 156.018C94.5652 156.018 97.5588 159.011 97.5588 162.704C97.5588 166.397 94.5652 169.391 90.8724 169.391Z" fill="#FFB1A5"/>
<path d="M68.5842 147.102C64.8913 147.102 61.8977 144.109 61.8977 140.416C61.8977 136.723 64.8913 133.729 68.5842 133.729C72.277 133.729 75.2706 136.723 75.2706 140.416C75.2706 144.109 72.277 147.102 68.5842 147.102Z" fill="#FFB1A5"/>
<path d="M46.2959 169.391C42.6031 169.391 39.6094 166.397 39.6094 162.704C39.6094 159.011 42.6031 156.018 46.2959 156.018C49.9887 156.018 52.9824 159.011 52.9824 162.704C52.9824 166.397 49.9887 169.391 46.2959 169.391Z" fill="#FFB1A5"/>
<path d="M24.0077 147.102C20.3148 147.102 17.3212 144.109 17.3212 140.416C17.3212 136.723 20.3148 133.729 24.0077 133.729C27.7005 133.729 30.6942 136.723 30.6942 140.416C30.6942 144.109 27.7005 147.102 24.0077 147.102Z" fill="#FFB1A5"/>
<path d="M1.71941 169.391C-1.97342 169.391 -4.96706 166.397 -4.96706 162.704C-4.96706 159.011 -1.97342 156.018 1.71941 156.018C5.41225 156.018 8.40588 159.011 8.40588 162.704C8.40588 166.397 5.41225 169.391 1.71941 169.391Z" fill="#FFB1A5"/>
<path d="M68.5842 191.679C64.8913 191.679 61.8977 188.685 61.8977 184.992C61.8977 181.299 64.8913 178.306 68.5842 178.306C72.277 178.306 75.2706 181.299 75.2706 184.992C75.2706 188.685 72.277 191.679 68.5842 191.679Z" fill="#FFB1A5"/>
<path d="M46.2959 213.967C42.6031 213.967 39.6094 210.973 39.6094 207.281C39.6094 203.588 42.6031 200.594 46.2959 200.594C49.9887 200.594 52.9824 203.588 52.9824 207.281C52.9824 210.973 49.9887 213.967 46.2959 213.967Z" fill="#FFB1A5"/>
<path d="M24.0077 191.679C20.3148 191.679 17.3212 188.685 17.3212 184.992C17.3212 181.299 20.3148 178.306 24.0077 178.306C27.7005 178.306 30.6942 181.299 30.6942 184.992C30.6942 188.685 27.7005 191.679 24.0077 191.679Z" fill="#FFB1A5"/>
<path d="M1.71941 213.967C-1.97342 213.967 -4.96706 210.973 -4.96706 207.281C-4.96706 203.588 -1.97342 200.594 1.71941 200.594C5.41225 200.594 8.40588 203.588 8.40588 207.281C8.40588 210.973 5.41225 213.967 1.71941 213.967Z" fill="#FFB1A5"/>
<path d="M24.0077 236.255C20.3148 236.255 17.3212 233.262 17.3212 229.569C17.3212 225.876 20.3148 222.882 24.0077 222.882C27.7005 222.882 30.6942 225.876 30.6942 229.569C30.6942 233.262 27.7005 236.255 24.0077 236.255Z" fill="#FFB1A5"/>
<path d="M1.71941 258.543C-1.97342 258.543 -4.96706 255.55 -4.96706 251.857C-4.96706 248.164 -1.97342 245.171 1.71941 245.171C5.41225 245.171 8.40588 248.164 8.40588 251.857C8.40588 255.55 5.41225 258.543 1.71941 258.543Z" fill="#FFB1A5"/>
</g>
<defs>
<clipPath id="clip0">
<rect width="209" height="285" fill="white" transform="matrix(-1 0 0 1 209 0)"/>
</clipPath>
</defs>
</svg>
