<svg width="842" height="794" viewBox="0 0 842 794" fill="none" xmlns="http://www.w3.org/2000/svg">
<rect opacity="0.2" y="251" width="1376.03" height="767.907" rx="99" transform="rotate(-45 0 251)" fill="#EAD254"/>
<g clip-path="url(#clip0)">
<path d="M795.704 149.661C799.397 149.661 802.391 146.668 802.391 142.975C802.391 139.282 799.397 136.288 795.704 136.288C792.011 136.288 789.018 139.282 789.018 142.975C789.018 146.668 792.011 149.661 795.704 149.661Z" fill="#EAD254"/>
<path d="M817.992 127.373C821.685 127.373 824.679 124.379 824.679 120.686C824.679 116.994 821.685 114 817.992 114C814.299 114 811.306 116.994 811.306 120.686C811.306 124.379 814.299 127.373 817.992 127.373Z" fill="#EAD254"/>
<path d="M840.281 149.661C843.973 149.661 846.967 146.668 846.967 142.975C846.967 139.282 843.973 136.288 840.281 136.288C836.588 136.288 833.594 139.282 833.594 142.975C833.594 146.668 836.588 149.661 840.281 149.661Z" fill="#EAD254"/>
<path d="M751.128 194.238C754.82 194.238 757.814 191.244 757.814 187.551C757.814 183.858 754.82 180.865 751.128 180.865C747.435 180.865 744.441 183.858 744.441 187.551C744.441 191.244 747.435 194.238 751.128 194.238Z" fill="#EAD254"/>
<path d="M773.416 171.949C777.109 171.949 780.102 168.956 780.102 165.263C780.102 161.57 777.109 158.576 773.416 158.576C769.723 158.576 766.729 161.57 766.729 165.263C766.729 168.956 769.723 171.949 773.416 171.949Z" fill="#EAD254"/>
<path d="M795.704 194.238C799.397 194.238 802.391 191.244 802.391 187.551C802.391 183.858 799.397 180.865 795.704 180.865C792.011 180.865 789.018 183.858 789.018 187.551C789.018 191.244 792.011 194.238 795.704 194.238Z" fill="#EAD254"/>
<path d="M817.992 171.949C821.685 171.949 824.679 168.956 824.679 165.263C824.679 161.57 821.685 158.576 817.992 158.576C814.299 158.576 811.306 161.57 811.306 165.263C811.306 168.956 814.299 171.949 817.992 171.949Z" fill="#EAD254"/>
<path d="M840.281 194.238C843.973 194.238 846.967 191.244 846.967 187.551C846.967 183.858 843.973 180.865 840.281 180.865C836.588 180.865 833.594 183.858 833.594 187.551C833.594 191.244 836.588 194.238 840.281 194.238Z" fill="#EAD254"/>
<path d="M706.551 238.814C710.244 238.814 713.238 235.82 713.238 232.128C713.238 228.435 710.244 225.441 706.551 225.441C702.858 225.441 699.865 228.435 699.865 232.128C699.865 235.82 702.858 238.814 706.551 238.814Z" fill="#EAD254"/>
<path d="M728.839 216.526C732.532 216.526 735.526 213.532 735.526 209.839C735.526 206.147 732.532 203.153 728.839 203.153C725.147 203.153 722.153 206.147 722.153 209.839C722.153 213.532 725.147 216.526 728.839 216.526Z" fill="#EAD254"/>
<path d="M751.128 238.814C754.82 238.814 757.814 235.82 757.814 232.128C757.814 228.435 754.82 225.441 751.128 225.441C747.435 225.441 744.441 228.435 744.441 232.128C744.441 235.82 747.435 238.814 751.128 238.814Z" fill="#EAD254"/>
<path d="M773.416 216.526C777.109 216.526 780.102 213.532 780.102 209.839C780.102 206.147 777.109 203.153 773.416 203.153C769.723 203.153 766.729 206.147 766.729 209.839C766.729 213.532 769.723 216.526 773.416 216.526Z" fill="#EAD254"/>
<path d="M795.704 238.814C799.397 238.814 802.391 235.82 802.391 232.128C802.391 228.435 799.397 225.441 795.704 225.441C792.011 225.441 789.018 228.435 789.018 232.128C789.018 235.82 792.011 238.814 795.704 238.814Z" fill="#EAD254"/>
<path d="M817.992 216.526C821.685 216.526 824.679 213.532 824.679 209.839C824.679 206.147 821.685 203.153 817.992 203.153C814.299 203.153 811.306 206.147 811.306 209.839C811.306 213.532 814.299 216.526 817.992 216.526Z" fill="#EAD254"/>
<path d="M840.281 238.814C843.973 238.814 846.967 235.82 846.967 232.128C846.967 228.435 843.973 225.441 840.281 225.441C836.588 225.441 833.594 228.435 833.594 232.128C833.594 235.82 836.588 238.814 840.281 238.814Z" fill="#EAD254"/>
<path d="M728.839 261.102C732.532 261.102 735.526 258.109 735.526 254.416C735.526 250.723 732.532 247.729 728.839 247.729C725.147 247.729 722.153 250.723 722.153 254.416C722.153 258.109 725.147 261.102 728.839 261.102Z" fill="#EAD254"/>
<path d="M751.128 283.391C754.82 283.391 757.814 280.397 757.814 276.704C757.814 273.011 754.82 270.018 751.128 270.018C747.435 270.018 744.441 273.011 744.441 276.704C744.441 280.397 747.435 283.391 751.128 283.391Z" fill="#EAD254"/>
<path d="M773.416 261.102C777.109 261.102 780.102 258.109 780.102 254.416C780.102 250.723 777.109 247.729 773.416 247.729C769.723 247.729 766.729 250.723 766.729 254.416C766.729 258.109 769.723 261.102 773.416 261.102Z" fill="#EAD254"/>
<path d="M795.704 283.391C799.397 283.391 802.391 280.397 802.391 276.704C802.391 273.011 799.397 270.018 795.704 270.018C792.011 270.018 789.018 273.011 789.018 276.704C789.018 280.397 792.011 283.391 795.704 283.391Z" fill="#EAD254"/>
<path d="M817.992 261.102C821.685 261.102 824.679 258.109 824.679 254.416C824.679 250.723 821.685 247.729 817.992 247.729C814.299 247.729 811.306 250.723 811.306 254.416C811.306 258.109 814.299 261.102 817.992 261.102Z" fill="#EAD254"/>
<path d="M840.281 283.391C843.973 283.391 846.967 280.397 846.967 276.704C846.967 273.011 843.973 270.018 840.281 270.018C836.588 270.018 833.594 273.011 833.594 276.704C833.594 280.397 836.588 283.391 840.281 283.391Z" fill="#EAD254"/>
<path d="M773.416 305.679C777.109 305.679 780.102 302.685 780.102 298.992C780.102 295.299 777.109 292.306 773.416 292.306C769.723 292.306 766.729 295.299 766.729 298.992C766.729 302.685 769.723 305.679 773.416 305.679Z" fill="#EAD254"/>
<path d="M795.704 327.967C799.397 327.967 802.391 324.973 802.391 321.281C802.391 317.588 799.397 314.594 795.704 314.594C792.011 314.594 789.018 317.588 789.018 321.281C789.018 324.973 792.011 327.967 795.704 327.967Z" fill="#EAD254"/>
<path d="M817.992 305.679C821.685 305.679 824.679 302.685 824.679 298.992C824.679 295.299 821.685 292.306 817.992 292.306C814.299 292.306 811.306 295.299 811.306 298.992C811.306 302.685 814.299 305.679 817.992 305.679Z" fill="#EAD254"/>
<path d="M840.281 327.967C843.973 327.967 846.967 324.973 846.967 321.281C846.967 317.588 843.973 314.594 840.281 314.594C836.588 314.594 833.594 317.588 833.594 321.281C833.594 324.973 836.588 327.967 840.281 327.967Z" fill="#EAD254"/>
<path d="M817.992 350.255C821.685 350.255 824.679 347.262 824.679 343.569C824.679 339.876 821.685 336.882 817.992 336.882C814.299 336.882 811.306 339.876 811.306 343.569C811.306 347.262 814.299 350.255 817.992 350.255Z" fill="#EAD254"/>
<path d="M840.281 372.543C843.973 372.543 846.967 369.55 846.967 365.857C846.967 362.164 843.973 359.171 840.281 359.171C836.588 359.171 833.594 362.164 833.594 365.857C833.594 369.55 836.588 372.543 840.281 372.543Z" fill="#EAD254"/>
</g>
<defs>
<clipPath id="clip0">
<rect width="209" height="285" fill="white" transform="translate(633 114)"/>
</clipPath>
</defs>
</svg>
